<?xml version="1.0" encoding="utf-8"?>
<!-- Generator: Adobe Illustrator 23.0.4, SVG Export Plug-In . SVG Version: 6.00 Build 0)  -->
<svg version="1.1" id="Layer_1" xmlns="http://www.w3.org/2000/svg" xmlns:xlink="http://www.w3.org/1999/xlink" x="0px" y="0px"
	 viewBox="0 0 28.35 28.35" style="enable-background:new 0 0 28.35 28.35;" xml:space="preserve">
<style type="text/css">
	.st0{fill:#4258a6;}
</style>
<g>
	<path class="st0" d="M0,0v28.35h28.35V0H0z M15.71,5.96l-0.5,11.18h-2.08l-0.5-11.18H15.71z M15.33,21.97
		c-0.3,0.28-0.69,0.42-1.16,0.42c-0.48,0-0.87-0.14-1.17-0.43c-0.3-0.29-0.44-0.72-0.44-1.29c0-0.57,0.14-1,0.42-1.28
		c0.28-0.28,0.68-0.42,1.19-0.42c0.47,0,0.85,0.13,1.16,0.41c0.3,0.27,0.45,0.7,0.45,1.29C15.78,21.26,15.63,21.69,15.33,21.97z"/>
</g>
</svg>
