<?xml version="1.0" encoding="utf-8"?>
<!-- Generator: Adobe Illustrator 23.0.4, SVG Export Plug-In . SVG Version: 6.00 Build 0)  -->
<svg version="1.1" id="Layer_1" xmlns="http://www.w3.org/2000/svg" xmlns:xlink="http://www.w3.org/1999/xlink" x="0px" y="0px"
	 viewBox="0 0 28.35 28.35" style="enable-background:new 0 0 28.35 28.35;" xml:space="preserve">
<style type="text/css">
	.st0{fill:#4258a6;}
</style>
<g>
	<path d="M58.05,10.68c0-0.57,0.14-1,0.42-1.28c0.28-0.28,0.68-0.42,1.19-0.42c0.47,0,0.85,0.13,1.16,0.41
		c0.3,0.27,0.45,0.7,0.45,1.29c0,0.59-0.15,1.02-0.45,1.3c-0.3,0.28-0.69,0.42-1.16,0.42c-0.48,0-0.87-0.14-1.17-0.43
		C58.2,11.68,58.05,11.25,58.05,10.68z M60.71,7.14h-2.08l-0.5-11.18h3.08L60.71,7.14z"/>
</g>
<g>
	<path class="st0" d="M0,0v28.35h28.35V0H0z M15.07,21.98c-0.29,0.28-0.67,0.41-1.13,0.41c-0.48,0-0.86-0.14-1.16-0.42
		c-0.3-0.28-0.45-0.71-0.45-1.27c0-0.57,0.14-0.99,0.43-1.26c0.28-0.28,0.68-0.41,1.18-0.41c0.46,0,0.84,0.13,1.13,0.4
		c0.29,0.27,0.44,0.69,0.44,1.27C15.51,21.27,15.36,21.7,15.07,21.98z M18.18,11.45c-0.16,0.47-0.4,0.91-0.72,1.32
		c-0.32,0.41-0.72,0.85-1.2,1.33c-0.37,0.36-0.65,0.67-0.83,0.93s-0.3,0.52-0.37,0.78c-0.07,0.26-0.1,0.56-0.1,0.88v0.51H12.8v-0.76
		c0-0.75,0.11-1.38,0.34-1.91c0.22-0.53,0.62-1.07,1.19-1.62c0.57-0.58,0.97-1.07,1.21-1.48c0.24-0.4,0.36-0.89,0.36-1.45
		c0-1.16-0.58-1.74-1.74-1.74c-0.48,0-0.94,0.09-1.39,0.26c-0.45,0.17-0.91,0.41-1.39,0.7l-0.92-2.01c0.6-0.39,1.21-0.69,1.86-0.91
		c0.64-0.22,1.32-0.32,2.04-0.32c1.31,0,2.32,0.34,3.02,1.03c0.7,0.69,1.05,1.62,1.05,2.8C18.41,10.42,18.34,10.98,18.18,11.45z"/>
</g>
</svg>
